<mxfile host="Electron" agent="Mozilla/5.0 (Windows NT 10.0; Win64; x64) AppleWebKit/537.36 (KHTML, like Gecko) draw.io/25.0.2 Chrome/128.0.6613.186 Electron/32.2.5 Safari/537.36" version="25.0.2">
  <diagram name="Page-1" id="qevpUwr2m4GMntoYXSei">
    <mxGraphModel dx="1195" dy="797" grid="1" gridSize="10" guides="1" tooltips="1" connect="1" arrows="1" fold="1" page="1" pageScale="1" pageWidth="827" pageHeight="1169" math="0" shadow="0">
      <root>
        <mxCell id="0" />
        <mxCell id="1" parent="0" />
        <mxCell id="4xjfuMBRvEEF80PNsOPJ-1" value="F&lt;sub&gt;1&lt;/sub&gt; (Task B)" style="rounded=1;whiteSpace=wrap;html=1;fillColor=#ffd966;" parent="1" vertex="1">
          <mxGeometry y="100" width="120" height="30" as="geometry" />
        </mxCell>
        <mxCell id="4xjfuMBRvEEF80PNsOPJ-3" value="F&lt;sub&gt;2&lt;/sub&gt; (Task B)" style="rounded=1;whiteSpace=wrap;html=1;fillColor=#ffd966;" parent="1" vertex="1">
          <mxGeometry y="130" width="120" height="30" as="geometry" />
        </mxCell>
        <mxCell id="4xjfuMBRvEEF80PNsOPJ-4" value="F&lt;sub&gt;3&lt;/sub&gt; (Task C)" style="rounded=1;whiteSpace=wrap;html=1;fillColor=#ffd966;" parent="1" vertex="1">
          <mxGeometry y="160" width="120" height="30" as="geometry" />
        </mxCell>
        <mxCell id="4xjfuMBRvEEF80PNsOPJ-5" value="F&lt;sub&gt;6&lt;/sub&gt; (Task C)" style="rounded=1;whiteSpace=wrap;html=1;fillColor=#ffd966;gradientColor=#ededed;gradientDirection=east;" parent="1" vertex="1">
          <mxGeometry y="190" width="120" height="30" as="geometry" />
        </mxCell>
        <mxCell id="4xjfuMBRvEEF80PNsOPJ-8" value="F&lt;sub&gt;4&lt;/sub&gt; (Task D)" style="rounded=1;whiteSpace=wrap;html=1;fillColor=#ededed;gradientColor=none;gradientDirection=east;" parent="1" vertex="1">
          <mxGeometry y="340" width="120" height="30" as="geometry" />
        </mxCell>
        <mxCell id="4xjfuMBRvEEF80PNsOPJ-9" value="F&lt;sub&gt;5&lt;/sub&gt; (Task E)" style="rounded=1;whiteSpace=wrap;html=1;fillColor=#ededed;gradientColor=none;gradientDirection=east;" parent="1" vertex="1">
          <mxGeometry y="370" width="120" height="30" as="geometry" />
        </mxCell>
        <mxCell id="4xjfuMBRvEEF80PNsOPJ-10" value="F&lt;sub&gt;6&lt;/sub&gt; (Task C)" style="rounded=1;whiteSpace=wrap;html=1;fillColor=#ffd966;gradientColor=#ededed;gradientDirection=east;" parent="1" vertex="1">
          <mxGeometry y="400" width="120" height="30" as="geometry" />
        </mxCell>
        <mxCell id="4xjfuMBRvEEF80PNsOPJ-20" value="" style="group;rounded=0;" parent="1" vertex="1" connectable="0">
          <mxGeometry x="220" y="178" width="100" height="40" as="geometry" />
        </mxCell>
        <mxCell id="4xjfuMBRvEEF80PNsOPJ-15" value="" style="rounded=0;whiteSpace=wrap;html=1;strokeWidth=4;" parent="4xjfuMBRvEEF80PNsOPJ-20" vertex="1">
          <mxGeometry x="40" width="20" height="40" as="geometry" />
        </mxCell>
        <mxCell id="4xjfuMBRvEEF80PNsOPJ-16" value="" style="rounded=0;whiteSpace=wrap;html=1;strokeWidth=4;" parent="4xjfuMBRvEEF80PNsOPJ-20" vertex="1">
          <mxGeometry x="60" width="20" height="40" as="geometry" />
        </mxCell>
        <mxCell id="4xjfuMBRvEEF80PNsOPJ-17" value="" style="rounded=0;whiteSpace=wrap;html=1;strokeWidth=4;" parent="4xjfuMBRvEEF80PNsOPJ-20" vertex="1">
          <mxGeometry x="80" width="20" height="40" as="geometry" />
        </mxCell>
        <mxCell id="4xjfuMBRvEEF80PNsOPJ-18" value="" style="endArrow=none;html=1;rounded=0;entryX=0;entryY=0;entryDx=0;entryDy=0;strokeWidth=4;" parent="4xjfuMBRvEEF80PNsOPJ-20" target="4xjfuMBRvEEF80PNsOPJ-15" edge="1">
          <mxGeometry width="50" height="50" relative="1" as="geometry">
            <mxPoint as="sourcePoint" />
            <mxPoint x="30" y="10" as="targetPoint" />
          </mxGeometry>
        </mxCell>
        <mxCell id="4xjfuMBRvEEF80PNsOPJ-19" value="" style="endArrow=none;html=1;rounded=0;entryX=0;entryY=1;entryDx=0;entryDy=0;strokeWidth=4;" parent="4xjfuMBRvEEF80PNsOPJ-20" target="4xjfuMBRvEEF80PNsOPJ-15" edge="1">
          <mxGeometry width="50" height="50" relative="1" as="geometry">
            <mxPoint y="40" as="sourcePoint" />
            <mxPoint x="50" y="10" as="targetPoint" />
          </mxGeometry>
        </mxCell>
        <mxCell id="4xjfuMBRvEEF80PNsOPJ-23" value="" style="sketch=0;outlineConnect=0;fontColor=#232F3E;gradientColor=none;fillColor=#232F3D;strokeColor=none;dashed=0;verticalLabelPosition=bottom;verticalAlign=top;align=center;html=1;fontSize=12;fontStyle=0;aspect=fixed;pointerEvents=1;shape=mxgraph.aws4.folder;" parent="1" vertex="1">
          <mxGeometry x="250" y="270" width="56.03" height="51" as="geometry" />
        </mxCell>
        <mxCell id="4xjfuMBRvEEF80PNsOPJ-28" value="" style="endArrow=classic;html=1;rounded=0;exitX=1;exitY=0.5;exitDx=0;exitDy=0;curved=1;" parent="1" source="4xjfuMBRvEEF80PNsOPJ-8" target="4xjfuMBRvEEF80PNsOPJ-23" edge="1">
          <mxGeometry width="50" height="50" relative="1" as="geometry">
            <mxPoint x="310" y="360" as="sourcePoint" />
            <mxPoint x="262" y="272" as="targetPoint" />
            <Array as="points">
              <mxPoint x="210" y="310" />
            </Array>
          </mxGeometry>
        </mxCell>
        <mxCell id="4xjfuMBRvEEF80PNsOPJ-29" value="" style="endArrow=classic;html=1;rounded=0;exitX=1;exitY=0.5;exitDx=0;exitDy=0;curved=1;" parent="1" source="4xjfuMBRvEEF80PNsOPJ-9" target="4xjfuMBRvEEF80PNsOPJ-23" edge="1">
          <mxGeometry width="50" height="50" relative="1" as="geometry">
            <mxPoint x="130" y="308" as="sourcePoint" />
            <mxPoint x="280" y="272" as="targetPoint" />
            <Array as="points">
              <mxPoint x="230" y="330" />
            </Array>
          </mxGeometry>
        </mxCell>
        <mxCell id="4xjfuMBRvEEF80PNsOPJ-30" value="" style="endArrow=classic;html=1;rounded=0;exitX=1;exitY=0.5;exitDx=0;exitDy=0;curved=1;" parent="1" source="4xjfuMBRvEEF80PNsOPJ-10" target="4xjfuMBRvEEF80PNsOPJ-23" edge="1">
          <mxGeometry width="50" height="50" relative="1" as="geometry">
            <mxPoint x="130" y="338" as="sourcePoint" />
            <mxPoint x="300" y="272" as="targetPoint" />
            <Array as="points">
              <mxPoint x="210" y="390" />
              <mxPoint x="250" y="350" />
            </Array>
          </mxGeometry>
        </mxCell>
        <mxCell id="4xjfuMBRvEEF80PNsOPJ-32" value="" style="endArrow=classic;html=1;rounded=0;curved=1;exitX=1;exitY=0.5;exitDx=0;exitDy=0;" parent="1" source="4xjfuMBRvEEF80PNsOPJ-17" target="4xjfuMBRvEEF80PNsOPJ-23" edge="1">
          <mxGeometry width="50" height="50" relative="1" as="geometry">
            <mxPoint x="330" y="190" as="sourcePoint" />
            <mxPoint x="410" y="190" as="targetPoint" />
            <Array as="points">
              <mxPoint x="340" y="210" />
              <mxPoint x="330" y="230" />
              <mxPoint x="310" y="230" />
            </Array>
          </mxGeometry>
        </mxCell>
        <mxCell id="4xjfuMBRvEEF80PNsOPJ-33" value="Write" style="text;html=1;align=center;verticalAlign=middle;whiteSpace=wrap;rounded=0;" parent="1" vertex="1">
          <mxGeometry x="246.03" y="230" width="60" height="30" as="geometry" />
        </mxCell>
        <mxCell id="4xjfuMBRvEEF80PNsOPJ-34" value="" style="endArrow=classic;html=1;rounded=0;exitX=1;exitY=0.5;exitDx=0;exitDy=0;curved=1;" parent="1" source="4xjfuMBRvEEF80PNsOPJ-1" edge="1">
          <mxGeometry width="50" height="50" relative="1" as="geometry">
            <mxPoint x="120" y="123" as="sourcePoint" />
            <mxPoint x="220" y="186" as="targetPoint" />
            <Array as="points">
              <mxPoint x="170" y="148" />
            </Array>
          </mxGeometry>
        </mxCell>
        <mxCell id="4xjfuMBRvEEF80PNsOPJ-40" value="" style="endArrow=classic;html=1;rounded=0;exitX=1;exitY=0.5;exitDx=0;exitDy=0;curved=1;" parent="1" source="4xjfuMBRvEEF80PNsOPJ-3" edge="1">
          <mxGeometry width="50" height="50" relative="1" as="geometry">
            <mxPoint x="120" y="153" as="sourcePoint" />
            <mxPoint x="220" y="195" as="targetPoint" />
            <Array as="points">
              <mxPoint x="170" y="168" />
            </Array>
          </mxGeometry>
        </mxCell>
        <mxCell id="4xjfuMBRvEEF80PNsOPJ-41" value="" style="endArrow=classic;html=1;rounded=0;exitX=1;exitY=0.5;exitDx=0;exitDy=0;curved=1;" parent="1" source="4xjfuMBRvEEF80PNsOPJ-4" edge="1">
          <mxGeometry width="50" height="50" relative="1" as="geometry">
            <mxPoint x="120" y="183" as="sourcePoint" />
            <mxPoint x="220" y="204" as="targetPoint" />
            <Array as="points">
              <mxPoint x="170" y="188" />
            </Array>
          </mxGeometry>
        </mxCell>
        <mxCell id="4xjfuMBRvEEF80PNsOPJ-42" value="" style="endArrow=classic;html=1;rounded=0;exitX=1;exitY=0.5;exitDx=0;exitDy=0;curved=1;" parent="1" source="4xjfuMBRvEEF80PNsOPJ-5" edge="1">
          <mxGeometry width="50" height="50" relative="1" as="geometry">
            <mxPoint x="180" y="270" as="sourcePoint" />
            <mxPoint x="220" y="213" as="targetPoint" />
            <Array as="points">
              <mxPoint x="170" y="205" />
            </Array>
          </mxGeometry>
        </mxCell>
        <mxCell id="4xjfuMBRvEEF80PNsOPJ-43" value="OS Queue" style="text;html=1;align=center;verticalAlign=middle;whiteSpace=wrap;rounded=0;" parent="1" vertex="1">
          <mxGeometry x="240" y="148" width="60" height="30" as="geometry" />
        </mxCell>
        <mxCell id="4xjfuMBRvEEF80PNsOPJ-46" value="Commit" style="text;html=1;align=center;verticalAlign=middle;whiteSpace=wrap;rounded=0;" parent="1" vertex="1">
          <mxGeometry x="150" y="118" width="60" height="30" as="geometry" />
        </mxCell>
        <mxCell id="4xjfuMBRvEEF80PNsOPJ-47" value="Database&lt;div&gt;(Task A)&lt;/div&gt;" style="text;html=1;align=center;verticalAlign=middle;whiteSpace=wrap;rounded=0;" parent="1" vertex="1">
          <mxGeometry x="190" y="260" width="60" height="30" as="geometry" />
        </mxCell>
        <mxCell id="4xjfuMBRvEEF80PNsOPJ-102" value="Read" style="text;html=1;align=center;verticalAlign=middle;whiteSpace=wrap;rounded=0;" parent="1" vertex="1">
          <mxGeometry x="130" y="300" width="60" height="30" as="geometry" />
        </mxCell>
        <mxCell id="4xjfuMBRvEEF80PNsOPJ-109" value="producer" style="rounded=1;whiteSpace=wrap;html=1;fillColor=#ffd966;" parent="1" vertex="1">
          <mxGeometry x="533" y="100" width="90" height="25" as="geometry" />
        </mxCell>
        <mxCell id="4xjfuMBRvEEF80PNsOPJ-110" value="consumer" style="rounded=1;whiteSpace=wrap;html=1;fillColor=#ededed;" parent="1" vertex="1">
          <mxGeometry x="643" y="100" width="90" height="25" as="geometry" />
        </mxCell>
        <mxCell id="4xjfuMBRvEEF80PNsOPJ-111" value="producer/consumer" style="rounded=1;whiteSpace=wrap;html=1;fillColor=#ededed;gradientColor=#ffd966;gradientDirection=west;" parent="1" vertex="1">
          <mxGeometry x="753" y="100" width="120" height="25" as="geometry" />
        </mxCell>
        <mxCell id="4xjfuMBRvEEF80PNsOPJ-119" value="" style="shape=flexArrow;endArrow=classic;html=1;rounded=0;width=5.6;endSize=7;endWidth=13.76;fillColor=#ffd966;strokeColor=none;" parent="1" edge="1">
          <mxGeometry width="50" height="50" relative="1" as="geometry">
            <mxPoint x="430" y="139.92000000000002" as="sourcePoint" />
            <mxPoint x="500" y="139.92000000000002" as="targetPoint" />
          </mxGeometry>
        </mxCell>
        <mxCell id="4xjfuMBRvEEF80PNsOPJ-120" value="&amp;nbsp; Write" style="text;html=1;align=left;verticalAlign=middle;whiteSpace=wrap;rounded=0;" parent="1" vertex="1">
          <mxGeometry x="430" y="125" width="70" height="30" as="geometry" />
        </mxCell>
        <mxCell id="4xjfuMBRvEEF80PNsOPJ-125" value="" style="shape=flexArrow;endArrow=classic;html=1;rounded=0;width=5.6;endSize=7;endWidth=13.76;fillColor=#ededed;strokeColor=none;" parent="1" edge="1">
          <mxGeometry width="50" height="50" relative="1" as="geometry">
            <mxPoint x="430" y="169.88" as="sourcePoint" />
            <mxPoint x="500" y="169.88" as="targetPoint" />
          </mxGeometry>
        </mxCell>
        <mxCell id="4xjfuMBRvEEF80PNsOPJ-126" value="&amp;nbsp; Read" style="text;html=1;align=left;verticalAlign=middle;whiteSpace=wrap;rounded=0;" parent="1" vertex="1">
          <mxGeometry x="430" y="155" width="70" height="30" as="geometry" />
        </mxCell>
        <mxCell id="4xjfuMBRvEEF80PNsOPJ-129" value="Database (Task A)" style="rounded=1;whiteSpace=wrap;html=1;fillColor=#bac8d3;strokeColor=#000000;verticalAlign=bottom;" parent="1" vertex="1">
          <mxGeometry x="572" y="310" width="190" height="110" as="geometry" />
        </mxCell>
        <mxCell id="4xjfuMBRvEEF80PNsOPJ-130" value="ALL" style="shape=cylinder3;whiteSpace=wrap;html=1;boundedLbl=1;backgroundOutline=1;size=15;fillColor=#f4b183;" parent="1" vertex="1">
          <mxGeometry x="637" y="325" width="60" height="68" as="geometry" />
        </mxCell>
        <mxCell id="4xjfuMBRvEEF80PNsOPJ-131" value="" style="rounded=1;whiteSpace=wrap;html=1;fillColor=none;dashed=1;" parent="1" vertex="1">
          <mxGeometry x="622" y="319" width="90" height="80" as="geometry" />
        </mxCell>
        <mxCell id="4xjfuMBRvEEF80PNsOPJ-133" value="" style="shape=flexArrow;endArrow=classic;html=1;rounded=0;width=5.6;endSize=7;endWidth=13.76;fillColor=#ffd966;strokeColor=none;exitX=0.947;exitY=0.535;exitDx=0;exitDy=0;entryX=0;entryY=0.25;entryDx=0;entryDy=0;exitPerimeter=0;" parent="1" source="4xjfuMBRvEEF80PNsOPJ-49" target="4xjfuMBRvEEF80PNsOPJ-131" edge="1">
          <mxGeometry width="50" height="50" relative="1" as="geometry">
            <mxPoint x="520" y="284.21000000000004" as="sourcePoint" />
            <mxPoint x="609" y="340.00104477611944" as="targetPoint" />
          </mxGeometry>
        </mxCell>
        <mxCell id="4xjfuMBRvEEF80PNsOPJ-135" value="" style="shape=flexArrow;endArrow=classic;html=1;rounded=0;width=5.6;endSize=7;endWidth=13.76;fillColor=#ededed;strokeColor=none;exitX=0.5;exitY=1;exitDx=0;exitDy=0;exitPerimeter=0;entryX=0.75;entryY=0;entryDx=0;entryDy=0;" parent="1" source="4xjfuMBRvEEF80PNsOPJ-76" target="4xjfuMBRvEEF80PNsOPJ-131" edge="1">
          <mxGeometry width="50" height="50" relative="1" as="geometry">
            <mxPoint x="653" y="290" as="sourcePoint" />
            <mxPoint x="723" y="290" as="targetPoint" />
          </mxGeometry>
        </mxCell>
        <mxCell id="4xjfuMBRvEEF80PNsOPJ-137" value="" style="shape=flexArrow;endArrow=classic;html=1;rounded=0;width=5.6;endSize=7;endWidth=13.76;fillColor=#ffd966;strokeColor=none;entryX=-0.007;entryY=0.696;entryDx=0;entryDy=0;entryPerimeter=0;exitX=0.953;exitY=0.604;exitDx=0;exitDy=0;exitPerimeter=0;" parent="1" source="4xjfuMBRvEEF80PNsOPJ-61" target="4xjfuMBRvEEF80PNsOPJ-131" edge="1">
          <mxGeometry width="50" height="50" relative="1" as="geometry">
            <mxPoint x="520" y="379.74421127360506" as="sourcePoint" />
            <mxPoint x="609.3599999999999" y="370" as="targetPoint" />
          </mxGeometry>
        </mxCell>
        <mxCell id="4xjfuMBRvEEF80PNsOPJ-56" value="" style="group" parent="1" vertex="1" connectable="0">
          <mxGeometry x="430" y="230" width="103" height="90" as="geometry" />
        </mxCell>
        <mxCell id="4xjfuMBRvEEF80PNsOPJ-54" value="F&lt;sub&gt;2&lt;/sub&gt;&amp;nbsp;(Task B)" style="rounded=1;whiteSpace=wrap;html=1;fillColor=#ffd966;verticalAlign=top;" parent="4xjfuMBRvEEF80PNsOPJ-56" vertex="1">
          <mxGeometry width="103" height="90" as="geometry" />
        </mxCell>
        <mxCell id="4xjfuMBRvEEF80PNsOPJ-55" value="" style="group" parent="4xjfuMBRvEEF80PNsOPJ-56" vertex="1" connectable="0">
          <mxGeometry x="18.5" y="24" width="66" height="56" as="geometry" />
        </mxCell>
        <mxCell id="4xjfuMBRvEEF80PNsOPJ-50" value="" style="shape=cylinder3;whiteSpace=wrap;html=1;boundedLbl=1;backgroundOutline=1;size=15;fillColor=#f4b183;" parent="4xjfuMBRvEEF80PNsOPJ-55" vertex="1">
          <mxGeometry x="6" width="60" height="48" as="geometry" />
        </mxCell>
        <mxCell id="4xjfuMBRvEEF80PNsOPJ-49" value="" style="shape=cylinder3;whiteSpace=wrap;html=1;boundedLbl=1;backgroundOutline=1;size=15;fillColor=#f4b183;" parent="4xjfuMBRvEEF80PNsOPJ-55" vertex="1">
          <mxGeometry x="3" y="4" width="60" height="48" as="geometry" />
        </mxCell>
        <mxCell id="4xjfuMBRvEEF80PNsOPJ-48" value="U" style="shape=cylinder3;whiteSpace=wrap;html=1;boundedLbl=1;backgroundOutline=1;size=15;fillColor=#f4b183;" parent="4xjfuMBRvEEF80PNsOPJ-55" vertex="1">
          <mxGeometry y="8" width="60" height="48" as="geometry" />
        </mxCell>
        <mxCell id="4xjfuMBRvEEF80PNsOPJ-58" value="" style="group" parent="1" vertex="1" connectable="0">
          <mxGeometry x="430" y="340" width="103" height="90" as="geometry" />
        </mxCell>
        <mxCell id="4xjfuMBRvEEF80PNsOPJ-59" value="F&lt;sub&gt;1&lt;/sub&gt;&amp;nbsp;(Task B)" style="rounded=1;whiteSpace=wrap;html=1;fillColor=#ffd966;verticalAlign=top;" parent="4xjfuMBRvEEF80PNsOPJ-58" vertex="1">
          <mxGeometry width="103" height="90" as="geometry" />
        </mxCell>
        <mxCell id="4xjfuMBRvEEF80PNsOPJ-60" value="" style="group" parent="4xjfuMBRvEEF80PNsOPJ-58" vertex="1" connectable="0">
          <mxGeometry x="18.5" y="24" width="66" height="56" as="geometry" />
        </mxCell>
        <mxCell id="4xjfuMBRvEEF80PNsOPJ-61" value="" style="shape=cylinder3;whiteSpace=wrap;html=1;boundedLbl=1;backgroundOutline=1;size=15;fillColor=#f4b183;" parent="4xjfuMBRvEEF80PNsOPJ-60" vertex="1">
          <mxGeometry x="6" width="60" height="48" as="geometry" />
        </mxCell>
        <mxCell id="4xjfuMBRvEEF80PNsOPJ-62" value="" style="shape=cylinder3;whiteSpace=wrap;html=1;boundedLbl=1;backgroundOutline=1;size=15;fillColor=#f4b183;" parent="4xjfuMBRvEEF80PNsOPJ-60" vertex="1">
          <mxGeometry x="3" y="4" width="60" height="48" as="geometry" />
        </mxCell>
        <mxCell id="4xjfuMBRvEEF80PNsOPJ-63" value="I" style="shape=cylinder3;whiteSpace=wrap;html=1;boundedLbl=1;backgroundOutline=1;size=15;fillColor=#f4b183;" parent="4xjfuMBRvEEF80PNsOPJ-60" vertex="1">
          <mxGeometry y="8" width="60" height="48" as="geometry" />
        </mxCell>
        <mxCell id="4xjfuMBRvEEF80PNsOPJ-139" value="" style="shape=flexArrow;endArrow=classic;html=1;rounded=0;width=5.6;endSize=7;endWidth=13.76;fillColor=#ffd966;strokeColor=none;exitX=0.5;exitY=1;exitDx=0;exitDy=0;exitPerimeter=0;" parent="1" source="4xjfuMBRvEEF80PNsOPJ-70" target="4xjfuMBRvEEF80PNsOPJ-131" edge="1">
          <mxGeometry width="50" height="50" relative="1" as="geometry">
            <mxPoint x="518" y="294" as="sourcePoint" />
            <mxPoint x="632" y="349" as="targetPoint" />
          </mxGeometry>
        </mxCell>
        <mxCell id="4xjfuMBRvEEF80PNsOPJ-65" value="" style="group" parent="1" vertex="1" connectable="0">
          <mxGeometry x="550" y="160" width="103" height="90" as="geometry" />
        </mxCell>
        <mxCell id="4xjfuMBRvEEF80PNsOPJ-66" value="F&lt;sub&gt;3&lt;/sub&gt;&amp;nbsp;(Task C)" style="rounded=1;whiteSpace=wrap;html=1;fillColor=#ffd966;verticalAlign=top;" parent="4xjfuMBRvEEF80PNsOPJ-65" vertex="1">
          <mxGeometry width="103" height="90" as="geometry" />
        </mxCell>
        <mxCell id="4xjfuMBRvEEF80PNsOPJ-67" value="" style="group" parent="4xjfuMBRvEEF80PNsOPJ-65" vertex="1" connectable="0">
          <mxGeometry x="18.5" y="24" width="66" height="56" as="geometry" />
        </mxCell>
        <mxCell id="4xjfuMBRvEEF80PNsOPJ-68" value="" style="shape=cylinder3;whiteSpace=wrap;html=1;boundedLbl=1;backgroundOutline=1;size=15;fillColor=#f4b183;" parent="4xjfuMBRvEEF80PNsOPJ-67" vertex="1">
          <mxGeometry x="6" width="60" height="48" as="geometry" />
        </mxCell>
        <mxCell id="4xjfuMBRvEEF80PNsOPJ-69" value="" style="shape=cylinder3;whiteSpace=wrap;html=1;boundedLbl=1;backgroundOutline=1;size=15;fillColor=#f4b183;" parent="4xjfuMBRvEEF80PNsOPJ-67" vertex="1">
          <mxGeometry x="3" y="4" width="60" height="48" as="geometry" />
        </mxCell>
        <mxCell id="4xjfuMBRvEEF80PNsOPJ-70" value="R" style="shape=cylinder3;whiteSpace=wrap;html=1;boundedLbl=1;backgroundOutline=1;size=15;fillColor=#f4b183;" parent="4xjfuMBRvEEF80PNsOPJ-67" vertex="1">
          <mxGeometry y="8" width="60" height="48" as="geometry" />
        </mxCell>
        <mxCell id="4xjfuMBRvEEF80PNsOPJ-71" value="" style="group" parent="1" vertex="1" connectable="0">
          <mxGeometry x="680" y="160" width="103" height="90" as="geometry" />
        </mxCell>
        <mxCell id="4xjfuMBRvEEF80PNsOPJ-72" value="F&lt;sub&gt;4&lt;/sub&gt;&amp;nbsp;(Task D)" style="rounded=1;whiteSpace=wrap;html=1;fillColor=#ededed;verticalAlign=top;" parent="4xjfuMBRvEEF80PNsOPJ-71" vertex="1">
          <mxGeometry width="103" height="90" as="geometry" />
        </mxCell>
        <mxCell id="4xjfuMBRvEEF80PNsOPJ-73" value="" style="group" parent="4xjfuMBRvEEF80PNsOPJ-71" vertex="1" connectable="0">
          <mxGeometry x="18.5" y="24" width="66" height="56" as="geometry" />
        </mxCell>
        <mxCell id="4xjfuMBRvEEF80PNsOPJ-74" value="" style="shape=cylinder3;whiteSpace=wrap;html=1;boundedLbl=1;backgroundOutline=1;size=15;fillColor=#f4b183;" parent="4xjfuMBRvEEF80PNsOPJ-73" vertex="1">
          <mxGeometry x="6" width="60" height="48" as="geometry" />
        </mxCell>
        <mxCell id="4xjfuMBRvEEF80PNsOPJ-75" value="" style="shape=cylinder3;whiteSpace=wrap;html=1;boundedLbl=1;backgroundOutline=1;size=15;fillColor=#f4b183;" parent="4xjfuMBRvEEF80PNsOPJ-73" vertex="1">
          <mxGeometry x="3" y="4" width="60" height="48" as="geometry" />
        </mxCell>
        <mxCell id="4xjfuMBRvEEF80PNsOPJ-76" value="R" style="shape=cylinder3;whiteSpace=wrap;html=1;boundedLbl=1;backgroundOutline=1;size=15;fillColor=#f4b183;" parent="4xjfuMBRvEEF80PNsOPJ-73" vertex="1">
          <mxGeometry y="8" width="60" height="48" as="geometry" />
        </mxCell>
        <mxCell id="4xjfuMBRvEEF80PNsOPJ-141" value="" style="shape=flexArrow;endArrow=classic;html=1;rounded=0;width=5.6;endSize=7;endWidth=13.76;fillColor=#ededed;strokeColor=none;exitX=0;exitY=0;exitDx=0;exitDy=28.5;exitPerimeter=0;entryX=1;entryY=0.25;entryDx=0;entryDy=0;" parent="1" source="4xjfuMBRvEEF80PNsOPJ-89" target="4xjfuMBRvEEF80PNsOPJ-131" edge="1">
          <mxGeometry width="50" height="50" relative="1" as="geometry">
            <mxPoint x="739" y="250" as="sourcePoint" />
            <mxPoint x="700" y="329" as="targetPoint" />
          </mxGeometry>
        </mxCell>
        <mxCell id="4xjfuMBRvEEF80PNsOPJ-84" value="" style="group" parent="1" vertex="1" connectable="0">
          <mxGeometry x="800" y="230" width="103" height="90" as="geometry" />
        </mxCell>
        <mxCell id="4xjfuMBRvEEF80PNsOPJ-85" value="F&lt;sub&gt;5&lt;/sub&gt;&amp;nbsp;(Task E)" style="rounded=1;whiteSpace=wrap;html=1;fillColor=#ededed;verticalAlign=top;" parent="4xjfuMBRvEEF80PNsOPJ-84" vertex="1">
          <mxGeometry width="103" height="90" as="geometry" />
        </mxCell>
        <mxCell id="4xjfuMBRvEEF80PNsOPJ-86" value="" style="group" parent="4xjfuMBRvEEF80PNsOPJ-84" vertex="1" connectable="0">
          <mxGeometry x="18.5" y="24" width="66" height="56" as="geometry" />
        </mxCell>
        <mxCell id="4xjfuMBRvEEF80PNsOPJ-87" value="" style="shape=cylinder3;whiteSpace=wrap;html=1;boundedLbl=1;backgroundOutline=1;size=15;fillColor=#f4b183;" parent="4xjfuMBRvEEF80PNsOPJ-86" vertex="1">
          <mxGeometry x="6" width="60" height="48" as="geometry" />
        </mxCell>
        <mxCell id="4xjfuMBRvEEF80PNsOPJ-88" value="" style="shape=cylinder3;whiteSpace=wrap;html=1;boundedLbl=1;backgroundOutline=1;size=15;fillColor=#f4b183;" parent="4xjfuMBRvEEF80PNsOPJ-86" vertex="1">
          <mxGeometry x="3" y="4" width="60" height="48" as="geometry" />
        </mxCell>
        <mxCell id="4xjfuMBRvEEF80PNsOPJ-89" value="I,U" style="shape=cylinder3;whiteSpace=wrap;html=1;boundedLbl=1;backgroundOutline=1;size=15;fillColor=#f4b183;" parent="4xjfuMBRvEEF80PNsOPJ-86" vertex="1">
          <mxGeometry y="8" width="60" height="48" as="geometry" />
        </mxCell>
        <mxCell id="4xjfuMBRvEEF80PNsOPJ-142" value="" style="shape=flexArrow;endArrow=classic;html=1;rounded=0;width=5.6;endSize=7;endWidth=13.76;fillColor=#ededed;strokeColor=none;exitX=0.5;exitY=0;exitDx=0;exitDy=0;exitPerimeter=0;entryX=1;entryY=0.5;entryDx=0;entryDy=0;" parent="1" source="4xjfuMBRvEEF80PNsOPJ-101" target="4xjfuMBRvEEF80PNsOPJ-131" edge="1">
          <mxGeometry width="50" height="50" relative="1" as="geometry">
            <mxPoint x="829" y="301" as="sourcePoint" />
            <mxPoint x="722" y="349" as="targetPoint" />
          </mxGeometry>
        </mxCell>
        <mxCell id="4xjfuMBRvEEF80PNsOPJ-143" value="" style="shape=flexArrow;endArrow=classic;html=1;rounded=0;width=5.6;endSize=7;endWidth=13.76;fillColor=#ffd966;strokeColor=none;exitX=0;exitY=0;exitDx=0;exitDy=28.5;exitPerimeter=0;entryX=1;entryY=0.75;entryDx=0;entryDy=0;" parent="1" source="4xjfuMBRvEEF80PNsOPJ-101" target="4xjfuMBRvEEF80PNsOPJ-131" edge="1">
          <mxGeometry width="50" height="50" relative="1" as="geometry">
            <mxPoint x="609" y="250" as="sourcePoint" />
            <mxPoint x="654" y="329" as="targetPoint" />
          </mxGeometry>
        </mxCell>
        <mxCell id="4xjfuMBRvEEF80PNsOPJ-96" value="" style="group" parent="1" vertex="1" connectable="0">
          <mxGeometry x="800" y="340" width="103" height="90" as="geometry" />
        </mxCell>
        <mxCell id="4xjfuMBRvEEF80PNsOPJ-97" value="F&lt;span style=&quot;font-size: 10px;&quot;&gt;6&lt;/span&gt;&amp;nbsp;(Task C)" style="rounded=1;whiteSpace=wrap;html=1;fillColor=#ededed;verticalAlign=top;gradientColor=#ffd966;gradientDirection=south;" parent="4xjfuMBRvEEF80PNsOPJ-96" vertex="1">
          <mxGeometry width="103" height="90" as="geometry" />
        </mxCell>
        <mxCell id="4xjfuMBRvEEF80PNsOPJ-98" value="" style="group" parent="4xjfuMBRvEEF80PNsOPJ-96" vertex="1" connectable="0">
          <mxGeometry x="18.5" y="24" width="66" height="56" as="geometry" />
        </mxCell>
        <mxCell id="4xjfuMBRvEEF80PNsOPJ-99" value="" style="shape=cylinder3;whiteSpace=wrap;html=1;boundedLbl=1;backgroundOutline=1;size=15;fillColor=#f4b183;" parent="4xjfuMBRvEEF80PNsOPJ-98" vertex="1">
          <mxGeometry x="6" width="60" height="48" as="geometry" />
        </mxCell>
        <mxCell id="4xjfuMBRvEEF80PNsOPJ-100" value="" style="shape=cylinder3;whiteSpace=wrap;html=1;boundedLbl=1;backgroundOutline=1;size=15;fillColor=#f4b183;" parent="4xjfuMBRvEEF80PNsOPJ-98" vertex="1">
          <mxGeometry x="3" y="4" width="60" height="48" as="geometry" />
        </mxCell>
        <mxCell id="4xjfuMBRvEEF80PNsOPJ-101" value="I,X" style="shape=cylinder3;whiteSpace=wrap;html=1;boundedLbl=1;backgroundOutline=1;size=15;fillColor=#f4b183;" parent="4xjfuMBRvEEF80PNsOPJ-98" vertex="1">
          <mxGeometry y="8" width="60" height="48" as="geometry" />
        </mxCell>
        <mxCell id="HLL5nvUQlTXiBcFQ9KTk-1" value="&lt;b&gt;Task A&lt;/b&gt;&lt;div&gt;&lt;br&gt;&lt;/div&gt;&lt;div&gt;Database&lt;br&gt;&lt;/div&gt;&lt;div&gt;&lt;br&gt;&lt;/div&gt;" style="rounded=1;whiteSpace=wrap;html=1;verticalAlign=top;" vertex="1" parent="1">
          <mxGeometry x="270" width="80" height="75" as="geometry" />
        </mxCell>
        <mxCell id="HLL5nvUQlTXiBcFQ9KTk-2" value="&lt;b&gt;Task B&lt;/b&gt;&lt;div&gt;&lt;br&gt;&lt;/div&gt;&lt;div&gt;F&lt;sub&gt;1&lt;/sub&gt;&lt;/div&gt;&lt;div&gt;F&lt;sub&gt;2&lt;/sub&gt;&lt;/div&gt;" style="rounded=1;whiteSpace=wrap;html=1;verticalAlign=top;" vertex="1" parent="1">
          <mxGeometry x="357" width="80" height="75" as="geometry" />
        </mxCell>
        <mxCell id="HLL5nvUQlTXiBcFQ9KTk-3" value="&lt;b&gt;Task C&lt;/b&gt;&lt;div&gt;&lt;br&gt;&lt;/div&gt;&lt;div&gt;F&lt;sub&gt;3&lt;/sub&gt;&lt;/div&gt;&lt;div&gt;F&lt;sub&gt;6&lt;/sub&gt;&lt;br&gt;&lt;/div&gt;" style="rounded=1;whiteSpace=wrap;html=1;verticalAlign=top;" vertex="1" parent="1">
          <mxGeometry x="445" width="80" height="75" as="geometry" />
        </mxCell>
        <mxCell id="HLL5nvUQlTXiBcFQ9KTk-4" value="&lt;b&gt;Task D&lt;/b&gt;&lt;div&gt;&lt;br&gt;&lt;/div&gt;&lt;div&gt;F&lt;sub&gt;4&lt;/sub&gt;&lt;br&gt;&lt;/div&gt;&lt;div&gt;&lt;sub&gt;&lt;br&gt;&lt;/sub&gt;&lt;/div&gt;" style="rounded=1;whiteSpace=wrap;html=1;verticalAlign=top;" vertex="1" parent="1">
          <mxGeometry x="532" width="80" height="75" as="geometry" />
        </mxCell>
        <mxCell id="HLL5nvUQlTXiBcFQ9KTk-5" value="&lt;b&gt;Task E&lt;/b&gt;&lt;div&gt;&lt;br&gt;&lt;/div&gt;&lt;div&gt;F&lt;sub&gt;6&lt;/sub&gt;&lt;br&gt;&lt;/div&gt;&lt;div&gt;&lt;br&gt;&lt;/div&gt;" style="rounded=1;whiteSpace=wrap;html=1;verticalAlign=top;" vertex="1" parent="1">
          <mxGeometry x="620" width="80" height="75" as="geometry" />
        </mxCell>
        <mxCell id="HLL5nvUQlTXiBcFQ9KTk-7" value="&lt;b&gt;Task:&lt;/b&gt;&lt;div&gt;&lt;br&gt;&lt;/div&gt;&lt;div&gt;Function:&lt;br&gt;&lt;/div&gt;&lt;div&gt;&lt;br&gt;&lt;/div&gt;" style="rounded=1;whiteSpace=wrap;html=1;verticalAlign=top;strokeWidth=1;strokeColor=none;fillColor=none;align=right;" vertex="1" parent="1">
          <mxGeometry x="200" width="60" height="75" as="geometry" />
        </mxCell>
      </root>
    </mxGraphModel>
  </diagram>
</mxfile>
